# xmcd
#
# Track frame offsets:
#	150
#	15895
#	32471
#	51212
#	72448
#	97894
#	119156
#	142587
#	163938
#	185877
#	204903
#	223453
#	244026
#	260520
#	280911
#	299755
#	317919
#
# Disc length: 4515 seconds
#
# Revision: 0
# Processed by: cddbd v1.5.2PL0 Copyright (c) Steve Scherf et al.
# Submitted via: EasyCDDAExtractor 15.3.0.1
#
DISCID=0911a111
DTITLE=Ricky Martin - Personalidad
DYEAR=2015
DGENRE=Latin
TTITLE0=Vida (Spanglish Version)
TTITLE1=Lo Mejor De Mi Vida Eres Tu
TTITLE2=Tu Recuerdo (MTV Unplugged Version)
TTITLE3=Te Extraño, Te Olvido, Te Amo
TTITLE4=Fuego De Noche, Nieve De Dia
TTITLE5=Tal Vez
TTITLE6=Vuelve
TTITLE7=A Medio Vivir
TTITLE8=No Importa La Distancia (Go The Distance)
TTITLE9=Perdido Sin Ti
TTITLE10=Livin' La Vida Loca (Spanish Version)
TTITLE11=Maria (Pablo Flores Spanglish Radio Edit)
TTITLE12=Come With Me (Spanglish Version)
TTITLE13=La Copa De La Vida (La Cancion Oficial De La Copa Mundial, Francia '9
TTITLE13=8) (Spanish)
TTITLE14=Mas
TTITLE15=Private Emotion (Ricky Martin and Meja)
TTITLE16=She Bangs (Spanish Version)
EXTD=
EXTT0=
EXTT1=
EXTT2=
EXTT3=
EXTT4=
EXTT5=
EXTT6=
EXTT7=
EXTT8=
EXTT9=
EXTT10=
EXTT11=
EXTT12=
EXTT13=
EXTT14=
EXTT15=
EXTT16=
PLAYORDER=
